<svg width="242" height="220" viewBox="0 0 242 220" fill="none" xmlns="http://www.w3.org/2000/svg">
<rect width="242" height="190" rx="6" fill="#F2F7F9"/>
<mask id="mask0" mask-type="alpha" maskUnits="userSpaceOnUse" x="0" y="0" width="242" height="190">
<rect width="242" height="190" rx="6" fill="white"/>
</mask>
<g mask="url(#mask0)">
</g>
<path d="M0 6C0 2.68629 2.68629 0 6 0H236C239.314 0 242 2.68629 242 6V20H0V6Z" fill="#DDEAF3"/>
<path fill-rule="evenodd" clip-rule="evenodd" d="M10.5 14C12.433 14 14 12.433 14 10.5C14 8.567 12.433 7 10.5 7C8.567 7 7 8.567 7 10.5C7 12.433 8.567 14 10.5 14ZM20.5 14C22.433 14 24 12.433 24 10.5C24 8.567 22.433 7 20.5 7C18.567 7 17 8.567 17 10.5C17 12.433 18.567 14 20.5 14ZM34 10.5C34 12.433 32.433 14 30.5 14C28.567 14 27 12.433 27 10.5C27 8.567 28.567 7 30.5 7C32.433 7 34 8.567 34 10.5Z" fill="#F2F7F9"/>
<path fill-rule="evenodd" clip-rule="evenodd" d="M70.25 37C70.25 35.8954 71.1454 35 72.25 35H169.75C170.855 35 171.75 35.8954 171.75 37V43C171.75 44.1046 170.855 45 169.75 45H72.25C71.1454 45 70.25 44.1046 70.25 43V37Z" fill="#BFD4E4"/>
<path fill-rule="evenodd" clip-rule="evenodd" d="M89 52C89 50.8954 89.8954 50 91 50H114C115.105 50 116 50.8954 116 52V58C116 59.1046 115.105 60 114 60H91C89.8954 60 89 59.1046 89 58V52Z" fill="#DDEAF3"/>
<path fill-rule="evenodd" clip-rule="evenodd" d="M81 60C83.7614 60 86 57.7614 86 55C86 52.2386 83.7614 50 81 50C78.2386 50 76 52.2386 76 55C76 57.7614 78.2386 60 81 60Z" fill="#DDEAF3"/>
<path fill-rule="evenodd" clip-rule="evenodd" d="M139 52C139 50.8954 139.895 50 141 50H164C165.105 50 166 50.8954 166 52V58C166 59.1046 165.105 60 164 60H141C139.895 60 139 59.1046 139 58V52Z" fill="#DDEAF3"/>
<path fill-rule="evenodd" clip-rule="evenodd" d="M131 60C133.761 60 136 57.7614 136 55C136 52.2386 133.761 50 131 50C128.239 50 126 52.2386 126 55C126 57.7614 128.239 60 131 60Z" fill="#DDEAF3"/>
<rect x="51" y="80" width="140" height="90" rx="4" fill="#BFD4E4"/>
<path fill-rule="evenodd" clip-rule="evenodd" d="M118.6 130.4L125.8 125L118.6 119.6V130.4V130.4ZM121 113C114.376 113 109 118.376 109 125C109 131.624 114.376 137 121 137C127.624 137 133 131.624 133 125C133 118.376 127.624 113 121 113V113Z" fill="#F2F7F9"/>
<path d="M71.1122 215V203.364H75.1804C75.991 203.364 76.6596 203.504 77.1861 203.784C77.7126 204.061 78.1046 204.434 78.3622 204.903C78.6198 205.369 78.7486 205.886 78.7486 206.455C78.7486 206.955 78.6596 207.367 78.4815 207.693C78.3073 208.019 78.0762 208.277 77.7884 208.466C77.5043 208.655 77.1955 208.795 76.8622 208.886V209C77.2183 209.023 77.5762 209.148 77.9361 209.375C78.2959 209.602 78.5971 209.928 78.8395 210.352C79.0819 210.777 79.2031 211.295 79.2031 211.909C79.2031 212.492 79.0705 213.017 78.8054 213.483C78.5402 213.949 78.1217 214.318 77.5497 214.591C76.9777 214.864 76.2334 215 75.3168 215H71.1122ZM72.5213 213.75H75.3168C76.2372 213.75 76.8906 213.572 77.277 213.216C77.6671 212.856 77.8622 212.42 77.8622 211.909C77.8622 211.515 77.7618 211.152 77.5611 210.818C77.3603 210.481 77.0743 210.212 76.7031 210.011C76.3319 209.807 75.8925 209.705 75.3849 209.705H72.5213V213.75ZM72.5213 208.477H75.1349C75.5592 208.477 75.9418 208.394 76.2827 208.227C76.6274 208.061 76.9001 207.826 77.1009 207.523C77.3054 207.22 77.4077 206.864 77.4077 206.455C77.4077 205.943 77.2296 205.509 76.8736 205.153C76.5175 204.794 75.9531 204.614 75.1804 204.614H72.5213V208.477ZM84.8821 215.182C84.0942 215.182 83.4029 214.994 82.8082 214.619C82.2173 214.244 81.7552 213.72 81.4219 213.045C81.0923 212.371 80.9276 211.583 80.9276 210.682C80.9276 209.773 81.0923 208.979 81.4219 208.301C81.7552 207.623 82.2173 207.097 82.8082 206.722C83.4029 206.347 84.0942 206.159 84.8821 206.159C85.67 206.159 86.3594 206.347 86.9503 206.722C87.545 207.097 88.0071 207.623 88.3366 208.301C88.67 208.979 88.8366 209.773 88.8366 210.682C88.8366 211.583 88.67 212.371 88.3366 213.045C88.0071 213.72 87.545 214.244 86.9503 214.619C86.3594 214.994 85.67 215.182 84.8821 215.182ZM84.8821 213.977C85.4806 213.977 85.973 213.824 86.3594 213.517C86.7457 213.21 87.0317 212.807 87.2173 212.307C87.4029 211.807 87.4957 211.265 87.4957 210.682C87.4957 210.098 87.4029 209.555 87.2173 209.051C87.0317 208.547 86.7457 208.14 86.3594 207.83C85.973 207.519 85.4806 207.364 84.8821 207.364C84.2836 207.364 83.7912 207.519 83.4048 207.83C83.0185 208.14 82.7325 208.547 82.5469 209.051C82.3613 209.555 82.2685 210.098 82.2685 210.682C82.2685 211.265 82.3613 211.807 82.5469 212.307C82.7325 212.807 83.0185 213.21 83.4048 213.517C83.7912 213.824 84.2836 213.977 84.8821 213.977ZM91.5241 206.273L93.6151 209.841L95.706 206.273H97.2514L94.4332 210.636L97.2514 215H95.706L93.6151 211.614L91.5241 215H89.9787L92.7514 210.636L89.9787 206.273H91.5241ZM102.464 215.182C101.624 215.182 100.898 214.996 100.288 214.625C99.6823 214.25 99.2145 213.727 98.8849 213.057C98.5592 212.383 98.3963 211.598 98.3963 210.705C98.3963 209.811 98.5592 209.023 98.8849 208.341C99.2145 207.655 99.6728 207.121 100.26 206.739C100.851 206.352 101.54 206.159 102.328 206.159C102.783 206.159 103.232 206.235 103.675 206.386C104.118 206.538 104.521 206.784 104.885 207.125C105.249 207.462 105.538 207.909 105.754 208.466C105.97 209.023 106.078 209.708 106.078 210.523V211.091H99.3509V209.932H104.714C104.714 209.439 104.616 209 104.419 208.614C104.226 208.227 103.949 207.922 103.589 207.699C103.233 207.475 102.813 207.364 102.328 207.364C101.794 207.364 101.332 207.496 100.942 207.761C100.555 208.023 100.258 208.364 100.05 208.784C99.8414 209.205 99.7372 209.655 99.7372 210.136V210.909C99.7372 211.568 99.8509 212.127 100.078 212.585C100.309 213.04 100.629 213.386 101.038 213.625C101.447 213.86 101.923 213.977 102.464 213.977C102.817 213.977 103.135 213.928 103.419 213.83C103.707 213.727 103.955 213.576 104.163 213.375C104.372 213.17 104.533 212.917 104.646 212.614L105.942 212.977C105.805 213.417 105.576 213.803 105.254 214.136C104.932 214.466 104.535 214.723 104.061 214.909C103.588 215.091 103.055 215.182 102.464 215.182ZM111.413 215.182C110.686 215.182 110.044 214.998 109.487 214.631C108.93 214.259 108.495 213.737 108.18 213.062C107.866 212.384 107.709 211.583 107.709 210.659C107.709 209.742 107.866 208.947 108.18 208.273C108.495 207.598 108.932 207.078 109.493 206.71C110.054 206.343 110.701 206.159 111.436 206.159C112.004 206.159 112.453 206.254 112.783 206.443C113.116 206.629 113.37 206.841 113.544 207.08C113.722 207.314 113.86 207.508 113.959 207.659H114.072V203.364H115.413V215H114.118V213.659H113.959C113.86 213.818 113.72 214.019 113.538 214.261C113.357 214.5 113.097 214.714 112.76 214.903C112.423 215.089 111.974 215.182 111.413 215.182ZM111.595 213.977C112.133 213.977 112.588 213.837 112.959 213.557C113.33 213.273 113.612 212.881 113.805 212.381C113.999 211.877 114.095 211.295 114.095 210.636C114.095 209.985 114 209.415 113.811 208.926C113.622 208.434 113.341 208.051 112.97 207.778C112.599 207.502 112.141 207.364 111.595 207.364C111.027 207.364 110.554 207.509 110.175 207.801C109.8 208.089 109.518 208.481 109.328 208.977C109.143 209.47 109.05 210.023 109.05 210.636C109.05 211.258 109.144 211.822 109.334 212.33C109.527 212.833 109.811 213.235 110.186 213.534C110.565 213.83 111.035 213.977 111.595 213.977ZM122.737 215V203.364H124.146V213.75H129.555V215H122.737ZM134.124 215.205C133.571 215.205 133.069 215.1 132.618 214.892C132.167 214.68 131.809 214.375 131.544 213.977C131.279 213.576 131.146 213.091 131.146 212.523C131.146 212.023 131.245 211.617 131.442 211.307C131.639 210.992 131.902 210.746 132.232 210.568C132.561 210.39 132.925 210.258 133.322 210.17C133.724 210.08 134.127 210.008 134.533 209.955C135.063 209.886 135.493 209.835 135.822 209.801C136.156 209.763 136.398 209.701 136.55 209.614C136.705 209.527 136.783 209.375 136.783 209.159V209.114C136.783 208.553 136.629 208.117 136.322 207.807C136.019 207.496 135.559 207.341 134.942 207.341C134.302 207.341 133.8 207.481 133.436 207.761C133.072 208.042 132.817 208.341 132.669 208.659L131.396 208.205C131.624 207.674 131.927 207.261 132.305 206.966C132.688 206.667 133.105 206.458 133.555 206.341C134.01 206.22 134.457 206.159 134.896 206.159C135.177 206.159 135.499 206.193 135.862 206.261C136.23 206.326 136.584 206.46 136.925 206.665C137.269 206.869 137.555 207.178 137.783 207.591C138.01 208.004 138.124 208.557 138.124 209.25V215H136.783V213.818H136.714C136.624 214.008 136.472 214.21 136.26 214.426C136.048 214.642 135.766 214.826 135.413 214.977C135.061 215.129 134.631 215.205 134.124 215.205ZM134.328 214C134.858 214 135.305 213.896 135.669 213.688C136.036 213.479 136.313 213.21 136.499 212.881C136.688 212.551 136.783 212.205 136.783 211.841V210.614C136.726 210.682 136.601 210.744 136.408 210.801C136.218 210.854 135.999 210.902 135.749 210.943C135.502 210.981 135.262 211.015 135.027 211.045C134.796 211.072 134.608 211.095 134.464 211.114C134.116 211.159 133.79 211.233 133.487 211.335C133.188 211.434 132.946 211.583 132.76 211.784C132.578 211.981 132.487 212.25 132.487 212.591C132.487 213.057 132.66 213.409 133.004 213.648C133.353 213.883 133.794 214 134.328 214ZM141.122 218.25C140.895 218.25 140.692 218.231 140.514 218.193C140.336 218.159 140.213 218.125 140.145 218.091L140.486 216.909C140.974 217.034 141.382 217.03 141.707 216.898C142.033 216.769 142.315 216.379 142.554 215.727L142.804 215.045L139.577 206.273H141.031L143.44 213.227H143.531L145.94 206.273L147.406 206.295L143.69 216.273C143.524 216.716 143.317 217.083 143.071 217.375C142.825 217.67 142.539 217.89 142.213 218.034C141.891 218.178 141.527 218.25 141.122 218.25ZM152.413 215.182C151.625 215.182 150.934 214.994 150.339 214.619C149.749 214.244 149.286 213.72 148.953 213.045C148.624 212.371 148.459 211.583 148.459 210.682C148.459 209.773 148.624 208.979 148.953 208.301C149.286 207.623 149.749 207.097 150.339 206.722C150.934 206.347 151.625 206.159 152.413 206.159C153.201 206.159 153.891 206.347 154.482 206.722C155.076 207.097 155.538 207.623 155.868 208.301C156.201 208.979 156.368 209.773 156.368 210.682C156.368 211.583 156.201 212.371 155.868 213.045C155.538 213.72 155.076 214.244 154.482 214.619C153.891 214.994 153.201 215.182 152.413 215.182ZM152.413 213.977C153.012 213.977 153.504 213.824 153.891 213.517C154.277 213.21 154.563 212.807 154.749 212.307C154.934 211.807 155.027 211.265 155.027 210.682C155.027 210.098 154.934 209.555 154.749 209.051C154.563 208.547 154.277 208.14 153.891 207.83C153.504 207.519 153.012 207.364 152.413 207.364C151.815 207.364 151.322 207.519 150.936 207.83C150.55 208.14 150.264 208.547 150.078 209.051C149.893 209.555 149.8 210.098 149.8 210.682C149.8 211.265 149.893 211.807 150.078 212.307C150.264 212.807 150.55 213.21 150.936 213.517C151.322 213.824 151.815 213.977 152.413 213.977ZM163.915 211.432V206.273H165.256V215H163.915V213.523H163.824C163.619 213.966 163.301 214.343 162.869 214.653C162.438 214.96 161.892 215.114 161.233 215.114C160.688 215.114 160.203 214.994 159.778 214.756C159.354 214.513 159.021 214.15 158.778 213.665C158.536 213.176 158.415 212.561 158.415 211.818V206.273H159.756V211.727C159.756 212.364 159.934 212.871 160.29 213.25C160.65 213.629 161.108 213.818 161.665 213.818C161.998 213.818 162.337 213.733 162.682 213.562C163.03 213.392 163.322 213.131 163.557 212.778C163.795 212.426 163.915 211.977 163.915 211.432ZM171.507 206.273V207.409H166.984V206.273H171.507ZM168.303 204.182H169.643V212.5C169.643 212.879 169.698 213.163 169.808 213.352C169.922 213.538 170.066 213.663 170.24 213.727C170.418 213.788 170.606 213.818 170.803 213.818C170.95 213.818 171.071 213.811 171.166 213.795C171.261 213.777 171.337 213.761 171.393 213.75L171.666 214.955C171.575 214.989 171.448 215.023 171.286 215.057C171.123 215.095 170.916 215.114 170.666 215.114C170.287 215.114 169.916 215.032 169.553 214.869C169.193 214.706 168.893 214.458 168.655 214.125C168.42 213.792 168.303 213.371 168.303 212.864V204.182Z" fill="#597393"/>
</svg>
