<svg width="242" height="471" viewBox="0 0 242 471" fill="none" xmlns="http://www.w3.org/2000/svg">
<rect width="242" height="418" rx="6" fill="#F2F7F9"/>
<mask id="mask0" mask-type="alpha" maskUnits="userSpaceOnUse" x="0" y="0" width="242" height="418">
<rect width="242" height="418" rx="6" fill="white"/>
</mask>
<g mask="url(#mask0)">
</g>
<path d="M0 6C0 2.68629 2.68629 0 6 0H236C239.314 0 242 2.68629 242 6V20H0V6Z" fill="#DDEAF3"/>
<path fill-rule="evenodd" clip-rule="evenodd" d="M10.5 14C12.433 14 14 12.433 14 10.5C14 8.567 12.433 7 10.5 7C8.567 7 7 8.567 7 10.5C7 12.433 8.567 14 10.5 14ZM20.5 14C22.433 14 24 12.433 24 10.5C24 8.567 22.433 7 20.5 7C18.567 7 17 8.567 17 10.5C17 12.433 18.567 14 20.5 14ZM34 10.5C34 12.433 32.433 14 30.5 14C28.567 14 27 12.433 27 10.5C27 8.567 28.567 7 30.5 7C32.433 7 34 8.567 34 10.5Z" fill="#F2F7F9"/>
<path fill-rule="evenodd" clip-rule="evenodd" d="M50 119C50 117.895 50.8954 117 52 117H190C191.105 117 192 117.895 192 119V123C192 124.105 191.105 125 190 125H52C50.8954 125 50 124.105 50 123V119Z" fill="#DDEAF3"/>
<path fill-rule="evenodd" clip-rule="evenodd" d="M50 131C50 129.895 50.8954 129 52 129H190C191.105 129 192 129.895 192 131V136C192 137.105 191.105 138 190 138H52C50.8954 138 50 137.105 50 136V131Z" fill="#DDEAF3"/>
<path fill-rule="evenodd" clip-rule="evenodd" d="M50 106C50 104.895 50.8954 104 52 104H169C170.105 104 171 104.895 171 106V110C171 111.105 170.105 112 169 112H52C50.8954 112 50 111.105 50 110V106Z" fill="#DDEAF3"/>
<path fill-rule="evenodd" clip-rule="evenodd" d="M50 144C50 142.895 50.8954 142 52 142H126C127.105 142 128 142.895 128 144V148C128 149.105 127.105 150 126 150H52C50.8954 150 50 149.105 50 148V144Z" fill="#DDEAF3"/>
<rect y="20" width="242" height="61" fill="#BFD4E4"/>
<path fill-rule="evenodd" clip-rule="evenodd" d="M63 39C63 37.8954 63.8954 37 65 37H177C178.105 37 179 37.8954 179 39V45C179 46.1046 178.105 47 177 47H65C63.8954 47 63 46.1046 63 45V39Z" fill="#F2F7F9"/>
<path fill-rule="evenodd" clip-rule="evenodd" d="M81 54C81 52.8954 81.8954 52 83 52H159C160.105 52 161 52.8954 161 54V60C161 61.1046 160.105 62 159 62H83C81.8954 62 81 61.1046 81 60V54Z" fill="#F2F7F9"/>
<path fill-rule="evenodd" clip-rule="evenodd" d="M50 161C50 159.895 50.8954 159 52 159H168C169.105 159 170 159.895 170 161V165C170 166.105 169.105 167 168 167H52C50.8954 167 50 166.105 50 165V161Z" fill="#DDEAF3"/>
<rect x="34" y="195" width="174" height="96" rx="4" fill="#BFD4E4"/>
<path fill-rule="evenodd" clip-rule="evenodd" d="M118.6 248.4L125.8 243L118.6 237.6V248.4V248.4ZM121 231C114.376 231 109 236.376 109 243C109 249.624 114.376 255 121 255C127.624 255 133 249.624 133 243C133 236.376 127.624 231 121 231V231Z" fill="#F2F7F9"/>
<path d="M73.3857 466V454.364H74.7947V464.75H80.2038V466H73.3857ZM84.772 466.205C84.219 466.205 83.7171 466.1 83.2663 465.892C82.8156 465.68 82.4576 465.375 82.1925 464.977C81.9273 464.576 81.7947 464.091 81.7947 463.523C81.7947 463.023 81.8932 462.617 82.0902 462.307C82.2872 461.992 82.5504 461.746 82.88 461.568C83.2095 461.39 83.5732 461.258 83.9709 461.17C84.3724 461.08 84.7758 461.008 85.1811 460.955C85.7114 460.886 86.1413 460.835 86.4709 460.801C86.8042 460.763 87.0466 460.701 87.1982 460.614C87.3535 460.527 87.4311 460.375 87.4311 460.159V460.114C87.4311 459.553 87.2777 459.117 86.9709 458.807C86.6679 458.496 86.2076 458.341 85.5902 458.341C84.95 458.341 84.4482 458.481 84.0845 458.761C83.7209 459.042 83.4652 459.341 83.3175 459.659L82.0447 459.205C82.272 458.674 82.575 458.261 82.9538 457.966C83.3364 457.667 83.7531 457.458 84.2038 457.341C84.6584 457.22 85.1054 457.159 85.5447 457.159C85.825 457.159 86.147 457.193 86.5107 457.261C86.8781 457.326 87.2322 457.46 87.5732 457.665C87.9179 457.869 88.2038 458.178 88.4311 458.591C88.6584 459.004 88.772 459.557 88.772 460.25V466H87.4311V464.818H87.3629C87.272 465.008 87.1205 465.21 86.9084 465.426C86.6963 465.642 86.4141 465.826 86.0618 465.977C85.7095 466.129 85.2796 466.205 84.772 466.205ZM84.9766 465C85.5069 465 85.9538 464.896 86.3175 464.688C86.6849 464.479 86.9614 464.21 87.147 463.881C87.3364 463.551 87.4311 463.205 87.4311 462.841V461.614C87.3743 461.682 87.2493 461.744 87.0561 461.801C86.8667 461.854 86.647 461.902 86.397 461.943C86.1508 461.981 85.9103 462.015 85.6754 462.045C85.4444 462.072 85.2569 462.095 85.1129 462.114C84.7644 462.159 84.4387 462.233 84.1357 462.335C83.8364 462.434 83.594 462.583 83.4084 462.784C83.2266 462.981 83.1357 463.25 83.1357 463.591C83.1357 464.057 83.308 464.409 83.6527 464.648C84.0012 464.883 84.4425 465 84.9766 465ZM92.5604 460.75V466H91.2195V457.273H92.5149V458.636H92.6286C92.8331 458.193 93.1437 457.837 93.5604 457.568C93.977 457.295 94.5149 457.159 95.174 457.159C95.7649 457.159 96.282 457.28 96.7251 457.523C97.1683 457.761 97.513 458.125 97.7592 458.614C98.0054 459.098 98.1286 459.712 98.1286 460.455V466H96.7876V460.545C96.7876 459.86 96.6096 459.326 96.2536 458.943C95.8975 458.557 95.4089 458.364 94.7876 458.364C94.3596 458.364 93.977 458.456 93.6399 458.642C93.3066 458.828 93.0433 459.098 92.8501 459.455C92.657 459.811 92.5604 460.242 92.5604 460.75ZM103.874 466.182C103.147 466.182 102.505 465.998 101.948 465.631C101.391 465.259 100.956 464.737 100.641 464.062C100.327 463.384 100.17 462.583 100.17 461.659C100.17 460.742 100.327 459.947 100.641 459.273C100.956 458.598 101.393 458.078 101.954 457.71C102.514 457.343 103.162 457.159 103.897 457.159C104.465 457.159 104.914 457.254 105.244 457.443C105.577 457.629 105.831 457.841 106.005 458.08C106.183 458.314 106.321 458.508 106.42 458.659H106.533V454.364H107.874V466H106.579V464.659H106.42C106.321 464.818 106.181 465.019 105.999 465.261C105.817 465.5 105.558 465.714 105.221 465.903C104.884 466.089 104.435 466.182 103.874 466.182ZM104.056 464.977C104.594 464.977 105.049 464.837 105.42 464.557C105.791 464.273 106.073 463.881 106.266 463.381C106.46 462.877 106.556 462.295 106.556 461.636C106.556 460.985 106.461 460.415 106.272 459.926C106.083 459.434 105.802 459.051 105.431 458.778C105.06 458.502 104.602 458.364 104.056 458.364C103.488 458.364 103.014 458.509 102.636 458.801C102.261 459.089 101.978 459.481 101.789 459.977C101.603 460.47 101.511 461.023 101.511 461.636C101.511 462.258 101.605 462.822 101.795 463.33C101.988 463.833 102.272 464.235 102.647 464.534C103.026 464.83 103.496 464.977 104.056 464.977ZM110.516 466V457.273H111.857V466H110.516ZM111.198 455.818C110.937 455.818 110.711 455.729 110.522 455.551C110.336 455.373 110.244 455.159 110.244 454.909C110.244 454.659 110.336 454.445 110.522 454.267C110.711 454.089 110.937 454 111.198 454C111.46 454 111.683 454.089 111.869 454.267C112.058 454.445 112.153 454.659 112.153 454.909C112.153 455.159 112.058 455.373 111.869 455.551C111.683 455.729 111.46 455.818 111.198 455.818ZM115.654 460.75V466H114.313V457.273H115.609V458.636H115.722C115.927 458.193 116.237 457.837 116.654 457.568C117.071 457.295 117.609 457.159 118.268 457.159C118.859 457.159 119.376 457.28 119.819 457.523C120.262 457.761 120.607 458.125 120.853 458.614C121.099 459.098 121.222 459.712 121.222 460.455V466H119.881V460.545C119.881 459.86 119.703 459.326 119.347 458.943C118.991 458.557 118.503 458.364 117.881 458.364C117.453 458.364 117.071 458.456 116.734 458.642C116.4 458.828 116.137 459.098 115.944 459.455C115.751 459.811 115.654 460.242 115.654 460.75ZM127.195 469.455C126.548 469.455 125.991 469.371 125.525 469.205C125.059 469.042 124.671 468.826 124.36 468.557C124.053 468.292 123.809 468.008 123.627 467.705L124.695 466.955C124.817 467.114 124.97 467.295 125.156 467.5C125.341 467.708 125.595 467.888 125.917 468.04C126.243 468.195 126.669 468.273 127.195 468.273C127.9 468.273 128.481 468.102 128.94 467.761C129.398 467.42 129.627 466.886 129.627 466.159V464.386H129.513C129.415 464.545 129.275 464.742 129.093 464.977C128.915 465.208 128.657 465.415 128.32 465.597C127.987 465.775 127.536 465.864 126.968 465.864C126.263 465.864 125.631 465.697 125.07 465.364C124.513 465.03 124.072 464.545 123.746 463.909C123.424 463.273 123.263 462.5 123.263 461.591C123.263 460.697 123.421 459.919 123.735 459.256C124.049 458.589 124.487 458.074 125.048 457.71C125.608 457.343 126.256 457.159 126.991 457.159C127.559 457.159 128.01 457.254 128.343 457.443C128.68 457.629 128.938 457.841 129.116 458.08C129.298 458.314 129.438 458.508 129.536 458.659H129.673V457.273H130.968V466.25C130.968 467 130.798 467.61 130.457 468.08C130.12 468.553 129.665 468.9 129.093 469.119C128.525 469.343 127.892 469.455 127.195 469.455ZM127.15 464.659C127.688 464.659 128.142 464.536 128.513 464.29C128.885 464.044 129.167 463.689 129.36 463.227C129.553 462.765 129.65 462.212 129.65 461.568C129.65 460.939 129.555 460.384 129.366 459.903C129.176 459.422 128.896 459.045 128.525 458.773C128.154 458.5 127.695 458.364 127.15 458.364C126.582 458.364 126.108 458.508 125.729 458.795C125.354 459.083 125.072 459.47 124.883 459.955C124.697 460.439 124.604 460.977 124.604 461.568C124.604 462.174 124.699 462.71 124.888 463.176C125.082 463.638 125.366 464.002 125.741 464.267C126.12 464.528 126.589 464.659 127.15 464.659ZM133.423 469.273V457.273H134.718V458.659H134.877C134.976 458.508 135.112 458.314 135.286 458.08C135.464 457.841 135.718 457.629 136.048 457.443C136.381 457.254 136.832 457.159 137.4 457.159C138.135 457.159 138.782 457.343 139.343 457.71C139.904 458.078 140.341 458.598 140.656 459.273C140.97 459.947 141.127 460.742 141.127 461.659C141.127 462.583 140.97 463.384 140.656 464.062C140.341 464.737 139.906 465.259 139.349 465.631C138.792 465.998 138.15 466.182 137.423 466.182C136.862 466.182 136.413 466.089 136.076 465.903C135.739 465.714 135.479 465.5 135.298 465.261C135.116 465.019 134.976 464.818 134.877 464.659H134.763V469.273H133.423ZM134.741 461.636C134.741 462.295 134.837 462.877 135.031 463.381C135.224 463.881 135.506 464.273 135.877 464.557C136.248 464.837 136.703 464.977 137.241 464.977C137.801 464.977 138.269 464.83 138.644 464.534C139.023 464.235 139.307 463.833 139.496 463.33C139.69 462.822 139.786 462.258 139.786 461.636C139.786 461.023 139.692 460.47 139.502 459.977C139.317 459.481 139.034 459.089 138.656 458.801C138.281 458.509 137.809 458.364 137.241 458.364C136.695 458.364 136.237 458.502 135.866 458.778C135.495 459.051 135.214 459.434 135.025 459.926C134.835 460.415 134.741 460.985 134.741 461.636ZM145.741 466.205C145.188 466.205 144.686 466.1 144.235 465.892C143.784 465.68 143.426 465.375 143.161 464.977C142.896 464.576 142.763 464.091 142.763 463.523C142.763 463.023 142.862 462.617 143.059 462.307C143.256 461.992 143.519 461.746 143.849 461.568C144.178 461.39 144.542 461.258 144.94 461.17C145.341 461.08 145.745 461.008 146.15 460.955C146.68 460.886 147.11 460.835 147.44 460.801C147.773 460.763 148.015 460.701 148.167 460.614C148.322 460.527 148.4 460.375 148.4 460.159V460.114C148.4 459.553 148.246 459.117 147.94 458.807C147.637 458.496 147.176 458.341 146.559 458.341C145.919 458.341 145.417 458.481 145.053 458.761C144.69 459.042 144.434 459.341 144.286 459.659L143.013 459.205C143.241 458.674 143.544 458.261 143.923 457.966C144.305 457.667 144.722 457.458 145.173 457.341C145.627 457.22 146.074 457.159 146.513 457.159C146.794 457.159 147.116 457.193 147.479 457.261C147.847 457.326 148.201 457.46 148.542 457.665C148.887 457.869 149.173 458.178 149.4 458.591C149.627 459.004 149.741 459.557 149.741 460.25V466H148.4V464.818H148.332C148.241 465.008 148.089 465.21 147.877 465.426C147.665 465.642 147.383 465.826 147.031 465.977C146.678 466.129 146.248 466.205 145.741 466.205ZM145.945 465C146.476 465 146.923 464.896 147.286 464.688C147.654 464.479 147.93 464.21 148.116 463.881C148.305 463.551 148.4 463.205 148.4 462.841V461.614C148.343 461.682 148.218 461.744 148.025 461.801C147.835 461.854 147.616 461.902 147.366 461.943C147.12 461.981 146.879 462.015 146.644 462.045C146.413 462.072 146.226 462.095 146.082 462.114C145.733 462.159 145.407 462.233 145.104 462.335C144.805 462.434 144.563 462.583 144.377 462.784C144.195 462.981 144.104 463.25 144.104 463.591C144.104 464.057 144.277 464.409 144.621 464.648C144.97 464.883 145.411 465 145.945 465ZM155.711 469.455C155.063 469.455 154.506 469.371 154.04 469.205C153.575 469.042 153.186 468.826 152.876 468.557C152.569 468.292 152.325 468.008 152.143 467.705L153.211 466.955C153.332 467.114 153.486 467.295 153.671 467.5C153.857 467.708 154.111 467.888 154.433 468.04C154.758 468.195 155.184 468.273 155.711 468.273C156.415 468.273 156.997 468.102 157.455 467.761C157.914 467.42 158.143 466.886 158.143 466.159V464.386H158.029C157.931 464.545 157.79 464.742 157.609 464.977C157.431 465.208 157.173 465.415 156.836 465.597C156.503 465.775 156.052 465.864 155.484 465.864C154.779 465.864 154.147 465.697 153.586 465.364C153.029 465.03 152.588 464.545 152.262 463.909C151.94 463.273 151.779 462.5 151.779 461.591C151.779 460.697 151.936 459.919 152.251 459.256C152.565 458.589 153.003 458.074 153.563 457.71C154.124 457.343 154.772 457.159 155.506 457.159C156.075 457.159 156.525 457.254 156.859 457.443C157.196 457.629 157.453 457.841 157.631 458.08C157.813 458.314 157.953 458.508 158.052 458.659H158.188V457.273H159.484V466.25C159.484 467 159.313 467.61 158.972 468.08C158.635 468.553 158.181 468.9 157.609 469.119C157.04 469.343 156.408 469.455 155.711 469.455ZM155.665 464.659C156.203 464.659 156.658 464.536 157.029 464.29C157.4 464.044 157.683 463.689 157.876 463.227C158.069 462.765 158.165 462.212 158.165 461.568C158.165 460.939 158.071 460.384 157.881 459.903C157.692 459.422 157.412 459.045 157.04 458.773C156.669 458.5 156.211 458.364 155.665 458.364C155.097 458.364 154.624 458.508 154.245 458.795C153.87 459.083 153.588 459.47 153.398 459.955C153.213 460.439 153.12 460.977 153.12 461.568C153.12 462.174 153.215 462.71 153.404 463.176C153.597 463.638 153.881 464.002 154.256 464.267C154.635 464.528 155.105 464.659 155.665 464.659ZM165.597 466.182C164.756 466.182 164.031 465.996 163.421 465.625C162.815 465.25 162.347 464.727 162.018 464.057C161.692 463.383 161.529 462.598 161.529 461.705C161.529 460.811 161.692 460.023 162.018 459.341C162.347 458.655 162.806 458.121 163.393 457.739C163.984 457.352 164.673 457.159 165.461 457.159C165.915 457.159 166.364 457.235 166.808 457.386C167.251 457.538 167.654 457.784 168.018 458.125C168.381 458.462 168.671 458.909 168.887 459.466C169.103 460.023 169.211 460.708 169.211 461.523V462.091H162.484V460.932H167.847C167.847 460.439 167.749 460 167.552 459.614C167.359 459.227 167.082 458.922 166.722 458.699C166.366 458.475 165.946 458.364 165.461 458.364C164.927 458.364 164.465 458.496 164.075 458.761C163.688 459.023 163.391 459.364 163.183 459.784C162.974 460.205 162.87 460.655 162.87 461.136V461.909C162.87 462.568 162.984 463.127 163.211 463.585C163.442 464.04 163.762 464.386 164.171 464.625C164.58 464.86 165.056 464.977 165.597 464.977C165.95 464.977 166.268 464.928 166.552 464.83C166.84 464.727 167.088 464.576 167.296 464.375C167.504 464.17 167.665 463.917 167.779 463.614L169.075 463.977C168.938 464.417 168.709 464.803 168.387 465.136C168.065 465.466 167.667 465.723 167.194 465.909C166.72 466.091 166.188 466.182 165.597 466.182Z" fill="#597393"/>
<rect x="89" y="320" width="64" height="74" rx="4" fill="#BFD4E4"/>
<path fill-rule="evenodd" clip-rule="evenodd" d="M120.927 378.69C108.948 378.69 99.2373 368.979 99.2373 357C99.2373 345.021 108.948 335.311 120.927 335.311C132.906 335.311 142.617 345.021 142.617 357C142.617 368.979 132.906 378.69 120.927 378.69ZM120.927 376.138C131.497 376.138 140.065 367.57 140.065 357C140.065 346.431 131.497 337.862 120.927 337.862C110.358 337.862 101.789 346.431 101.789 357C101.789 367.57 110.358 376.138 120.927 376.138Z" fill="#DDEAF3"/>
<path fill-rule="evenodd" clip-rule="evenodd" d="M99 357C99 369.15 108.85 379 121 379C133.15 379 143 369.15 143 357C143 344.85 133.15 335 121 335C120.285 335 119.706 335.579 119.706 336.294C119.706 337.009 120.285 337.588 121 337.588C131.721 337.588 140.412 346.279 140.412 357C140.412 367.721 131.721 376.412 121 376.412C110.279 376.412 101.588 367.721 101.588 357C101.588 356.285 101.009 355.706 100.294 355.706C99.5794 355.706 99 356.285 99 357Z" fill="#DDEAF3"/>
<rect x="115" y="350" width="13" height="14" rx="2" fill="#F2F7F9"/>
<rect x="166" y="320" width="63" height="74" rx="4" fill="#BFD4E4"/>
<path fill-rule="evenodd" clip-rule="evenodd" d="M197.479 378.69C185.5 378.69 175.789 368.979 175.789 357C175.789 345.021 185.5 335.311 197.479 335.311C209.458 335.311 219.168 345.021 219.168 357C219.168 368.979 209.458 378.69 197.479 378.69ZM197.479 376.138C208.048 376.138 216.617 367.57 216.617 357C216.617 346.431 208.048 337.862 197.479 337.862C186.909 337.862 178.341 346.431 178.341 357C178.341 367.57 186.909 376.138 197.479 376.138Z" fill="#DDEAF3"/>
<rect x="191" y="350" width="13" height="14" rx="2" fill="#F2F7F9"/>
<rect x="12" y="320" width="65" height="74" rx="4" fill="#BFD4E4"/>
<path fill-rule="evenodd" clip-rule="evenodd" d="M21 352C21 350.895 21.8954 350 23 350H64C65.1046 350 66 350.895 66 352V362C66 363.105 65.1046 364 64 364H23C21.8954 364 21 363.105 21 362V352Z" fill="#DDEAF3"/>
<path fill-rule="evenodd" clip-rule="evenodd" d="M21 372C21 370.895 21.8954 370 23 370H54C55.1046 370 56 370.895 56 372V380C56 381.105 55.1046 382 54 382H23C21.8954 382 21 381.105 21 380V372Z" fill="#DDEAF3"/>
<path fill-rule="evenodd" clip-rule="evenodd" d="M21 334C21 332.895 21.8954 332 23 332H44C45.1046 332 46 332.895 46 334V342C46 343.105 45.1046 344 44 344H23C21.8954 344 21 343.105 21 342V334Z" fill="#DDEAF3"/>
</svg>
