<svg width="242" height="220" viewBox="0 0 242 220" fill="none" xmlns="http://www.w3.org/2000/svg">
<rect width="242" height="190" rx="6" fill="#F2F7F9"/>
<mask id="mask0" mask-type="alpha" maskUnits="userSpaceOnUse" x="0" y="0" width="242" height="190">
<rect width="242" height="190" rx="6" fill="white"/>
</mask>
<g mask="url(#mask0)">
</g>
<path d="M0 6C0 2.68629 2.68629 0 6 0H236C239.314 0 242 2.68629 242 6V20H0V6Z" fill="#DDEAF3"/>
<path fill-rule="evenodd" clip-rule="evenodd" d="M10.5 14C12.433 14 14 12.433 14 10.5C14 8.567 12.433 7 10.5 7C8.567 7 7 8.567 7 10.5C7 12.433 8.567 14 10.5 14ZM20.5 14C22.433 14 24 12.433 24 10.5C24 8.567 22.433 7 20.5 7C18.567 7 17 8.567 17 10.5C17 12.433 18.567 14 20.5 14ZM34 10.5C34 12.433 32.433 14 30.5 14C28.567 14 27 12.433 27 10.5C27 8.567 28.567 7 30.5 7C32.433 7 34 8.567 34 10.5Z" fill="#F2F7F9"/>
<path fill-rule="evenodd" clip-rule="evenodd" d="M7 37C7 35.8954 7.89543 35 9 35H233C234.105 35 235 35.8954 235 37V43C235 44.1046 234.105 45 233 45H9.00001C7.89544 45 7 44.1046 7 43V37Z" fill="#BFD4E4"/>
<path fill-rule="evenodd" clip-rule="evenodd" d="M89 52C89 50.8954 89.8954 50 91 50H114C115.105 50 116 50.8954 116 52V58C116 59.1046 115.105 60 114 60H91C89.8954 60 89 59.1046 89 58V52Z" fill="#DDEAF3"/>
<path fill-rule="evenodd" clip-rule="evenodd" d="M81 60C83.7614 60 86 57.7614 86 55C86 52.2386 83.7614 50 81 50C78.2386 50 76 52.2386 76 55C76 57.7614 78.2386 60 81 60Z" fill="#DDEAF3"/>
<path fill-rule="evenodd" clip-rule="evenodd" d="M139 52C139 50.8954 139.895 50 141 50H164C165.105 50 166 50.8954 166 52V58C166 59.1046 165.105 60 164 60H141C139.895 60 139 59.1046 139 58V52Z" fill="#DDEAF3"/>
<path fill-rule="evenodd" clip-rule="evenodd" d="M131 60C133.761 60 136 57.7614 136 55C136 52.2386 133.761 50 131 50C128.239 50 126 52.2386 126 55C126 57.7614 128.239 60 131 60Z" fill="#DDEAF3"/>
<rect x="7" y="80" width="228" height="90" rx="4" fill="#BFD4E4"/>
<path fill-rule="evenodd" clip-rule="evenodd" d="M118.6 130.4L125.8 125L118.6 119.6V130.4V130.4ZM121 113C114.376 113 109 118.376 109 125C109 131.624 114.376 137 121 137C127.624 137 133 131.624 133 125C133 118.376 127.624 113 121 113V113Z" fill="#F2F7F9"/>
<path d="M57.37 215V203.364H64.3473V204.614H58.7791V208.545H63.8246V209.795H58.7791V215H57.37ZM71.532 211.432V206.273H72.8729V215H71.532V213.523H71.4411C71.2365 213.966 70.9183 214.343 70.4865 214.653C70.0547 214.96 69.5092 215.114 68.8501 215.114C68.3047 215.114 67.8198 214.994 67.3956 214.756C66.9714 214.513 66.638 214.15 66.3956 213.665C66.1532 213.176 66.032 212.561 66.032 211.818V206.273H67.3729V211.727C67.3729 212.364 67.5509 212.871 67.907 213.25C68.2668 213.629 68.7251 213.818 69.282 213.818C69.6153 213.818 69.9543 213.733 70.299 213.562C70.6475 213.392 70.9392 213.131 71.174 212.778C71.4126 212.426 71.532 211.977 71.532 211.432ZM76.6697 203.364V215H75.3288V203.364H76.6697ZM80.4666 203.364V215H79.1257V203.364H80.4666ZM89.718 215L86.5362 203.364H87.968L90.3999 212.841H90.5135L92.9908 203.364H94.5817L97.0589 212.841H97.1726L99.6044 203.364H101.036L97.8544 215H96.3999L93.8317 205.727H93.7408L91.1726 215H89.718ZM102.61 215V206.273H103.951V215H102.61ZM103.292 204.818C103.031 204.818 102.805 204.729 102.616 204.551C102.43 204.373 102.337 204.159 102.337 203.909C102.337 203.659 102.43 203.445 102.616 203.267C102.805 203.089 103.031 203 103.292 203C103.553 203 103.777 203.089 103.962 203.267C104.152 203.445 104.246 203.659 104.246 203.909C104.246 204.159 104.152 204.373 103.962 204.551C103.777 204.729 103.553 204.818 103.292 204.818ZM109.702 215.182C108.975 215.182 108.333 214.998 107.776 214.631C107.219 214.259 106.784 213.737 106.469 213.062C106.155 212.384 105.998 211.583 105.998 210.659C105.998 209.742 106.155 208.947 106.469 208.273C106.784 207.598 107.221 207.078 107.782 206.71C108.343 206.343 108.99 206.159 109.725 206.159C110.293 206.159 110.742 206.254 111.072 206.443C111.405 206.629 111.659 206.841 111.833 207.08C112.011 207.314 112.149 207.508 112.248 207.659H112.362V203.364H113.702V215H112.407V213.659H112.248C112.149 213.818 112.009 214.019 111.827 214.261C111.646 214.5 111.386 214.714 111.049 214.903C110.712 215.089 110.263 215.182 109.702 215.182ZM109.884 213.977C110.422 213.977 110.877 213.837 111.248 213.557C111.619 213.273 111.901 212.881 112.094 212.381C112.288 211.877 112.384 211.295 112.384 210.636C112.384 209.985 112.29 209.415 112.1 208.926C111.911 208.434 111.63 208.051 111.259 207.778C110.888 207.502 110.43 207.364 109.884 207.364C109.316 207.364 108.843 207.509 108.464 207.801C108.089 208.089 107.807 208.481 107.617 208.977C107.432 209.47 107.339 210.023 107.339 210.636C107.339 211.258 107.433 211.822 107.623 212.33C107.816 212.833 108.1 213.235 108.475 213.534C108.854 213.83 109.324 213.977 109.884 213.977ZM120.14 206.273V207.409H115.617V206.273H120.14ZM116.935 204.182H118.276V212.5C118.276 212.879 118.331 213.163 118.441 213.352C118.555 213.538 118.699 213.663 118.873 213.727C119.051 213.788 119.238 213.818 119.435 213.818C119.583 213.818 119.704 213.811 119.799 213.795C119.894 213.777 119.969 213.761 120.026 213.75L120.299 214.955C120.208 214.989 120.081 215.023 119.918 215.057C119.755 215.095 119.549 215.114 119.299 215.114C118.92 215.114 118.549 215.032 118.185 214.869C117.826 214.706 117.526 214.458 117.288 214.125C117.053 213.792 116.935 213.371 116.935 212.864V204.182ZM123.685 209.75V215H122.344V203.364H123.685V207.636H123.799C124.004 207.186 124.31 206.828 124.719 206.562C125.132 206.294 125.682 206.159 126.367 206.159C126.962 206.159 127.483 206.278 127.93 206.517C128.377 206.752 128.723 207.114 128.969 207.602C129.219 208.087 129.344 208.705 129.344 209.455V215H128.004V209.545C128.004 208.852 127.824 208.316 127.464 207.938C127.108 207.555 126.613 207.364 125.981 207.364C125.541 207.364 125.147 207.456 124.799 207.642C124.454 207.828 124.182 208.098 123.981 208.455C123.784 208.811 123.685 209.242 123.685 209.75ZM136.479 215V203.364H137.888V213.75H143.298V215H136.479ZM147.866 215.205C147.313 215.205 146.811 215.1 146.36 214.892C145.909 214.68 145.551 214.375 145.286 213.977C145.021 213.576 144.888 213.091 144.888 212.523C144.888 212.023 144.987 211.617 145.184 211.307C145.381 210.992 145.644 210.746 145.974 210.568C146.303 210.39 146.667 210.258 147.065 210.17C147.466 210.08 147.87 210.008 148.275 209.955C148.805 209.886 149.235 209.835 149.565 209.801C149.898 209.763 150.14 209.701 150.292 209.614C150.447 209.527 150.525 209.375 150.525 209.159V209.114C150.525 208.553 150.371 208.117 150.065 207.807C149.762 207.496 149.301 207.341 148.684 207.341C148.044 207.341 147.542 207.481 147.178 207.761C146.815 208.042 146.559 208.341 146.411 208.659L145.138 208.205C145.366 207.674 145.669 207.261 146.048 206.966C146.43 206.667 146.847 206.458 147.298 206.341C147.752 206.22 148.199 206.159 148.638 206.159C148.919 206.159 149.241 206.193 149.604 206.261C149.972 206.326 150.326 206.46 150.667 206.665C151.012 206.869 151.298 207.178 151.525 207.591C151.752 208.004 151.866 208.557 151.866 209.25V215H150.525V213.818H150.457C150.366 214.008 150.214 214.21 150.002 214.426C149.79 214.642 149.508 214.826 149.156 214.977C148.803 215.129 148.373 215.205 147.866 215.205ZM148.07 214C148.601 214 149.048 213.896 149.411 213.688C149.779 213.479 150.055 213.21 150.241 212.881C150.43 212.551 150.525 212.205 150.525 211.841V210.614C150.468 210.682 150.343 210.744 150.15 210.801C149.96 210.854 149.741 210.902 149.491 210.943C149.245 210.981 149.004 211.015 148.769 211.045C148.538 211.072 148.351 211.095 148.207 211.114C147.858 211.159 147.532 211.233 147.229 211.335C146.93 211.434 146.688 211.583 146.502 211.784C146.32 211.981 146.229 212.25 146.229 212.591C146.229 213.057 146.402 213.409 146.746 213.648C147.095 213.883 147.536 214 148.07 214ZM154.864 218.25C154.637 218.25 154.434 218.231 154.256 218.193C154.078 218.159 153.955 218.125 153.887 218.091L154.228 216.909C154.717 217.034 155.124 217.03 155.45 216.898C155.775 216.769 156.058 216.379 156.296 215.727L156.546 215.045L153.319 206.273H154.773L157.183 213.227H157.273L159.683 206.273L161.148 206.295L157.433 216.273C157.266 216.716 157.059 217.083 156.813 217.375C156.567 217.67 156.281 217.89 155.955 218.034C155.633 218.178 155.27 218.25 154.864 218.25ZM166.156 215.182C165.368 215.182 164.676 214.994 164.082 214.619C163.491 214.244 163.029 213.72 162.695 213.045C162.366 212.371 162.201 211.583 162.201 210.682C162.201 209.773 162.366 208.979 162.695 208.301C163.029 207.623 163.491 207.097 164.082 206.722C164.676 206.347 165.368 206.159 166.156 206.159C166.943 206.159 167.633 206.347 168.224 206.722C168.818 207.097 169.281 207.623 169.61 208.301C169.943 208.979 170.11 209.773 170.11 210.682C170.11 211.583 169.943 212.371 169.61 213.045C169.281 213.72 168.818 214.244 168.224 214.619C167.633 214.994 166.943 215.182 166.156 215.182ZM166.156 213.977C166.754 213.977 167.246 213.824 167.633 213.517C168.019 213.21 168.305 212.807 168.491 212.307C168.676 211.807 168.769 211.265 168.769 210.682C168.769 210.098 168.676 209.555 168.491 209.051C168.305 208.547 168.019 208.14 167.633 207.83C167.246 207.519 166.754 207.364 166.156 207.364C165.557 207.364 165.065 207.519 164.678 207.83C164.292 208.14 164.006 208.547 163.82 209.051C163.635 209.555 163.542 210.098 163.542 210.682C163.542 211.265 163.635 211.807 163.82 212.307C164.006 212.807 164.292 213.21 164.678 213.517C165.065 213.824 165.557 213.977 166.156 213.977ZM177.657 211.432V206.273H178.998V215H177.657V213.523H177.566C177.362 213.966 177.043 214.343 176.612 214.653C176.18 214.96 175.634 215.114 174.975 215.114C174.43 215.114 173.945 214.994 173.521 214.756C173.096 214.513 172.763 214.15 172.521 213.665C172.278 213.176 172.157 212.561 172.157 211.818V206.273H173.498V211.727C173.498 212.364 173.676 212.871 174.032 213.25C174.392 213.629 174.85 213.818 175.407 213.818C175.74 213.818 176.079 213.733 176.424 213.562C176.772 213.392 177.064 213.131 177.299 212.778C177.538 212.426 177.657 211.977 177.657 211.432ZM185.249 206.273V207.409H180.727V206.273H185.249ZM182.045 204.182H183.386V212.5C183.386 212.879 183.441 213.163 183.55 213.352C183.664 213.538 183.808 213.663 183.982 213.727C184.16 213.788 184.348 213.818 184.545 213.818C184.692 213.818 184.814 213.811 184.908 213.795C185.003 213.777 185.079 213.761 185.136 213.75L185.408 214.955C185.317 214.989 185.191 215.023 185.028 215.057C184.865 215.095 184.658 215.114 184.408 215.114C184.03 215.114 183.658 215.032 183.295 214.869C182.935 214.706 182.636 214.458 182.397 214.125C182.162 213.792 182.045 213.371 182.045 212.864V204.182Z" fill="#597393"/>
</svg>
