<svg width="20" height="19" viewBox="0 0 20 19" fill="none" xmlns="http://www.w3.org/2000/svg">
<path d="M9.5744 18.2404L9.57442 18.2404L0.809848 10.6764L0.799159 10.6672L0.789006 10.6573C0.63408 10.5076 0.517474 10.2937 0.50182 10.0459C0.485364 9.78535 0.583728 9.53158 0.783046 9.33235L0.795991 9.31941L0.80985 9.30745L9.57442 1.74345L9.58066 1.73806L9.58708 1.73288C9.9949 1.40377 10.5883 1.40329 10.9826 1.70293C11.4393 2.04988 11.477 2.72685 11.0334 3.11155L11.0326 3.11229L4.15858 9.04698L17.8485 9.04698C18.325 9.04698 18.8962 9.37791 18.8962 9.99192C18.8962 10.6059 18.325 10.9369 17.8485 10.9369L4.15857 10.9369L11.0326 16.8716L11.0336 16.8725C11.4829 17.2624 11.4277 17.9319 10.9887 18.2762L9.5744 18.2404ZM9.5744 18.2404L9.57778 18.2433M9.5744 18.2404L9.57778 18.2433M9.57778 18.2433C9.7881 18.4216 10.0497 18.4952 10.2838 18.4998M9.57778 18.2433L10.2838 18.4998M10.2838 18.4998C10.5163 18.5043 10.7777 18.4417 10.9886 18.2762L10.2838 18.4998Z" fill="black" stroke="black"/>
</svg>
