<svg width="20" height="19" viewBox="0 0 20 19" fill="none" xmlns="http://www.w3.org/2000/svg">
<path d="M10.4256 0.759577L10.4256 0.759591L19.1902 8.32361L19.2008 8.33284L19.211 8.34265C19.3659 8.49242 19.4825 8.70634 19.4982 8.95413C19.5146 9.21465 19.4163 9.46841 19.217 9.66765L19.204 9.68059L19.1902 9.69255L10.4256 17.2565L10.4193 17.2619L10.4129 17.2671C10.0051 17.5962 9.41169 17.5967 9.01743 17.2971C8.56074 16.9501 8.523 16.2731 8.96655 15.8885L8.96741 15.8877L15.8414 9.95302H2.15154C1.67503 9.95302 1.10376 9.62209 1.10376 9.00808C1.10376 8.39406 1.67503 8.06314 2.15154 8.06314H15.8414L8.96741 2.12842L8.9664 2.12755C8.51711 1.73755 8.57231 1.0681 9.01131 0.723791L10.4256 0.759577ZM10.4256 0.759577L10.4222 0.756716M10.4256 0.759577L10.4222 0.756716M10.4222 0.756716C10.2119 0.578429 9.95032 0.504785 9.71617 0.500231M10.4222 0.756716L9.71617 0.500231M9.71617 0.500231C9.48372 0.49571 9.22233 0.558297 9.01136 0.723754L9.71617 0.500231Z" fill="black" stroke="black"/>
</svg>
