<svg width="36" height="61" viewBox="0 0 36 61" fill="none" xmlns="http://www.w3.org/2000/svg">
<path d="M35.6896 45.0127C36.0938 44.6317 36.0967 43.9804 35.7366 43.6135C35.3707 43.2407 34.699 43.2133 34.3145 43.5673L19.0021 57.7414L19.0021 0.983875C19.0021 0.440481 18.5544 -7.62572e-07 18.0021 -7.86714e-07C17.4498 -8.10855e-07 17.0021 0.44048 17.0021 0.983875L17.0021 57.7414L1.68973 43.5673C1.30523 43.213 0.627634 43.2349 0.267637 43.6135C-0.0923596 43.9919 -0.101259 44.6009 0.314638 45.0127L17.3145 60.7549C17.7825 61.1291 18.3561 61.0307 18.6897 60.7549L35.6896 45.0127Z" fill="white"/>
</svg>
