<svg xmlns="http://www.w3.org/2000/svg" viewBox="0 0 212.57 201.19"><defs><style>.cls-1{fill:#fff;}</style></defs><g id="Ebene_2" data-name="Ebene 2"><g id="Ebene_1-2" data-name="Ebene 1"><path class="cls-1" d="M159.53,186.39l-25.9-50.17-27.35,52.71L78.94,136.22,53,186.39H16.27L77.1,68.29l29.18,54.65,29.19-54.65,60.83,118.1Zm52.82-.74C210.5,182,121.85,9.86,121.85,9.86h0A18.57,18.57,0,0,0,106.33,0h-.08A18.6,18.6,0,0,0,90.73,9.86S2.08,182,.22,185.65A3.51,3.51,0,0,0,0,186.94c0,.74,0,10.71,0,13.52,0,.8.55.73.55.73H212s.55.07.55-.73c0-2.81,0-12.78,0-13.52a3.31,3.31,0,0,0-.22-1.29"/></g></g></svg>