<svg width="25" height="25" viewBox="0 0 25 25" fill="none" xmlns="http://www.w3.org/2000/svg">
<path d="M12.3142 5.99725C11.0659 5.99725 9.84549 6.36744 8.80749 7.06101C7.76949 7.75459 6.96046 8.74039 6.48272 9.89375C6.00498 11.0471 5.87998 12.3163 6.12353 13.5407C6.36708 14.7651 6.96824 15.8898 7.85099 16.7725C8.73374 17.6553 9.85843 18.2564 11.0828 18.5C12.3072 18.7435 13.5764 18.6185 14.7297 18.1408C15.8831 17.663 16.8689 16.854 17.5625 15.816C18.2561 14.778 18.6263 13.5576 18.6263 12.3092C18.6278 11.4799 18.4656 10.6584 18.149 9.89188C17.8323 9.12536 17.3675 8.4289 16.781 7.84247C16.1946 7.25603 15.4981 6.79115 14.7316 6.4745C13.9651 6.15785 13.1436 5.99567 12.3142 5.99725ZM12.3142 16.4123C11.5033 16.4123 10.7107 16.1718 10.0364 15.7213C9.36217 15.2708 8.83666 14.6304 8.52634 13.8813C8.21603 13.1321 8.13483 12.3077 8.29303 11.5124C8.45123 10.7171 8.84172 9.98651 9.41511 9.41311C9.98851 8.83972 10.7191 8.44923 11.5144 8.29103C12.3097 8.13283 13.1341 8.21402 13.8833 8.52434C14.6324 8.83466 15.2728 9.36017 15.7233 10.0344C16.1738 10.7087 16.4143 11.5013 16.4143 12.3123C16.4113 13.3987 15.9785 14.4399 15.2102 15.2082C14.4419 15.9765 13.4007 16.4093 12.3142 16.4123ZM20.3563 5.73925C20.3553 6.03017 20.2681 6.31427 20.1057 6.55568C19.9434 6.79709 19.7132 6.98498 19.4441 7.09563C19.175 7.20628 18.8792 7.23471 18.594 7.17735C18.3088 7.11999 18.047 6.97941 17.8416 6.77334C17.6363 6.56728 17.4966 6.30499 17.4402 6.01959C17.3838 5.73419 17.4132 5.43847 17.5248 5.16979C17.6363 4.90111 17.825 4.67151 18.067 4.50998C18.3089 4.34846 18.5933 4.26225 18.8843 4.26225C19.0781 4.26185 19.2701 4.29982 19.4492 4.37397C19.6283 4.44811 19.7909 4.55697 19.9278 4.69427C20.0646 4.83157 20.1729 4.99459 20.2465 5.17394C20.32 5.35328 20.3573 5.54541 20.3563 5.73925ZM24.5363 7.23325C24.5767 5.31937 23.8622 3.46647 22.5473 2.07525C21.1532 0.764735 19.3022 0.0509576 17.3893 0.08625C15.3573 -0.02875 9.26525 -0.02875 7.23225 0.08625C5.32027 0.0485351 3.46938 0.760248 2.07525 2.06925C0.762529 3.46187 0.0483907 5.31382 0.08625 7.22725C-0.02875 9.25925 -0.02875 15.3513 0.08625 17.3843C0.0458042 19.2981 0.760307 21.151 2.07525 22.5423C3.46984 23.8519 5.32046 24.5655 7.23325 24.5312C9.26525 24.6462 15.3573 24.6462 17.3903 24.5312C19.3041 24.5717 21.157 23.8572 22.5483 22.5423C23.8588 21.1482 24.5725 19.2972 24.5373 17.3843C24.6523 15.3523 24.6523 9.26525 24.5373 7.23325H24.5363ZM21.9113 19.5623C21.7024 20.0918 21.3869 20.5728 20.9843 20.9753C20.5818 21.3779 20.1008 21.6934 19.5713 21.9023C17.9513 22.5452 14.1053 22.3963 12.3142 22.3963C10.5232 22.3963 6.67225 22.5392 5.05725 21.9023C4.52769 21.6934 4.04671 21.3779 3.64417 20.9753C3.24164 20.5728 2.92614 20.0918 2.71725 19.5623C2.07425 17.9422 2.22325 14.0962 2.22325 12.3062C2.22325 10.5162 2.08025 6.66525 2.71725 5.05025C2.92614 4.52069 3.24164 4.03971 3.64417 3.63717C4.04671 3.23464 4.52769 2.91914 5.05725 2.71025C6.67725 2.06725 10.5232 2.21625 12.3142 2.21625C14.1053 2.21625 17.9563 2.07325 19.5713 2.71025C20.1008 2.91914 20.5818 3.23464 20.9843 3.63717C21.3869 4.03971 21.7024 4.52069 21.9113 5.05025C22.5543 6.67025 22.4053 10.5162 22.4053 12.3062C22.4053 14.0962 22.5533 17.9503 21.9113 19.5623Z" fill="white"/>
</svg>
